<svg xmlns="http://www.w3.org/2000/svg" width="1200" height="800" viewBox="0 0 1200 800">
  <defs>
    <pattern id="grid" width="20" height="20" patternUnits="userSpaceOnUse"><path d="M20 0H0V20" fill="none" stroke="#173d35" stroke-width="1"/></pattern>
    <marker id="arrow" markerWidth="8" markerHeight="8" refX="4" refY="4" orient="auto"><path d="M0 0L8 4L0 8Z" fill="#f5b942"/></marker>
    <style>.o{fill:none;stroke:#62e68a;stroke-width:2}.a{fill:none;stroke:#f5b942;stroke-width:2}.t{fill:#e7f7ec;font:18px monospace}.s{fill:#9fc8b0;font:14px monospace}.h{fill:#f5b942;font:bold 28px monospace}.d{fill:none;stroke:#f5b942;stroke-width:1.5;marker-start:url(#arrow);marker-end:url(#arrow)}</style>
  </defs>
  <rect width="1200" height="800" fill="#071814"/><rect width="1200" height="800" fill="url(#grid)"/>
  <text x="45" y="52" class="h">WAYKEEPER WK-01 // FIELD TERMINAL BLUEPRINT</text>
  <text x="45" y="78" class="s">CONCEPT ENVELOPE // 285 x 205 x 78 MM // PASSIVE 7 W FIELD MODE</text>
  <rect x="80" y="130" width="570" height="410" rx="18" class="o"/>
  <rect x="115" y="165" width="500" height="260" rx="8" class="a"/>
  <rect x="150" y="195" width="310" height="185" class="o"/><text x="220" y="290" class="t">7-IN DISPLAY</text>
  <rect x="485" y="195" width="100" height="75" class="o"/><text x="498" y="225" class="s">ORIN</text><text x="498" y="245" class="s">NANO</text>
  <rect x="485" y="285" width="45" height="80" class="a"/><rect x="540" y="285" width="45" height="80" class="a"/>
  <text x="490" y="390" class="s">2 x 2 TB NVMe</text>
  <rect x="115" y="445" width="315" height="65" rx="5" class="o"/><text x="175" y="485" class="t">40% USB KEYBOARD</text>
  <rect x="455" y="445" width="160" height="65" rx="5" class="a"/><text x="477" y="475" class="s">128 Wh LFP</text><text x="477" y="495" class="s">DRAWER</text>
  <line x1="80" y1="575" x2="650" y2="575" class="d"/><text x="310" y="603" class="t">285 MM</text>
  <line x1="45" y1="130" x2="45" y2="540" class="d"/><text x="20" y="355" class="t" transform="rotate(-90 20 355)">205 MM</text>
  <text x="750" y="130" class="h">POWER TREE</text>
  <rect x="750" y="165" width="365" height="65" rx="8" class="a"/><text x="805" y="205" class="t">10-28 V SOLAR / DC</text>
  <path d="M932 230V265" class="a" marker-end="url(#arrow)"/>
  <rect x="790" y="265" width="285" height="65" rx="8" class="o"/><text x="825" y="305" class="t">MPPT + 4S LFP BMS</text>
  <path d="M932 330V365" class="a" marker-end="url(#arrow)"/>
  <rect x="790" y="365" width="285" height="65" rx="8" class="o"/><text x="825" y="405" class="t">FUSED 12.8 V BUS</text>
  <path d="M860 430V470M1000 430V470" class="a"/>
  <rect x="740" y="470" width="235" height="65" rx="8" class="o"/><text x="765" y="500" class="s">5 V / 5 A COMPUTE</text><text x="765" y="520" class="s">BROWNOUT LOGGING</text>
  <rect x="990" y="470" width="170" height="65" rx="8" class="o"/><text x="1015" y="500" class="s">DISPLAY</text><text x="1015" y="520" class="s">SWITCHED RAIL</text>
  <text x="750" y="600" class="h">FIELD RUNTIME // 128 Wh</text>
  <text x="750" y="635" class="t">PDF / MAP ............ 7.3 H</text>
  <text x="750" y="668" class="t">LOCAL GUIDE .......... 5.2 H</text>
  <text x="750" y="701" class="t">AI + DUAL SSD ......... 3.1 H</text>
  <text x="750" y="734" class="s">100 W SOLAR RECOMMENDED // 60 W MINIMUM</text>
</svg>
